<svg version="1.1" id="Layer_1" xmlns="http://www.w3.org/2000/svg" xmlns:xlink="http://www.w3.org/1999/xlink" viewBox="0 0 64 64" xml:space="preserve" fill="#000000"><g id="SVGRepo_bgCarrier" stroke-width="0"></g><g id="SVGRepo_tracerCarrier" stroke-linecap="round" stroke-linejoin="round"></g><g id="SVGRepo_iconCarrier"> <circle style="fill:#F0F0F0;" cx="32" cy="32" r="32"></circle> <g> <path style="fill:#0052B4;" d="M6.615,12.518c-2.514,3.27-4.409,7.04-5.513,11.134h16.647L6.615,12.518z"></path> <path style="fill:#0052B4;" d="M62.898,23.652c-1.104-4.094-2.999-7.864-5.513-11.134l-11.134,11.134H62.898z"></path> <path style="fill:#0052B4;" d="M1.102,40.348c1.104,4.094,2.999,7.864,5.513,11.134l11.134-11.134H1.102L1.102,40.348z"></path> <path style="fill:#0052B4;" d="M51.482,6.615c-3.27-2.514-7.04-4.409-11.134-5.513v16.647L51.482,6.615z"></path> <path style="fill:#0052B4;" d="M12.518,57.385c3.27,2.514,7.04,4.409,11.134,5.513V46.251L12.518,57.385z"></path> <path style="fill:#0052B4;" d="M23.652,1.102c-4.094,1.104-7.864,2.999-11.134,5.513l11.134,11.134V1.102z"></path> <path style="fill:#0052B4;" d="M40.348,62.898c4.094-1.104,7.864-2.999,11.134-5.513l-11.134-11.134V62.898z"></path> <path style="fill:#0052B4;" d="M46.251,40.348l11.134,11.134c2.514-3.27,4.409-7.04,5.513-11.134H46.251z"></path> </g> <g> <path style="fill:#D80027;" d="M63.729,27.826h-27.555h-0.001V0.271C34.808,0.093,33.415,0,32,0 c-1.415,0-2.808,0.093-4.174,0.271v27.555v0.001H0.271C0.093,29.192,0,30.585,0,32c0,1.415,0.093,2.808,0.271,4.174h27.555h0.001 v27.555C29.192,63.907,30.585,64,32,64c1.415,0,2.808-0.093,4.174-0.271v-27.555v-0.001h27.555C63.907,34.808,64,33.415,64,32 C64,30.585,63.907,29.192,63.729,27.826z"></path> <path style="fill:#D80027;" d="M40.348,40.348L40.348,40.348L54.627,54.627c0.657-0.657,1.283-1.343,1.881-2.054 l-12.225-12.225h-3.935V40.348z"></path> <path style="fill:#D80027;" d="M23.652,40.348h-0.001L9.373,54.627c0.657,0.657,1.343,1.283,2.054,1.881l12.225-12.225 V40.348z"></path> <path style="fill:#D80027;" d="M23.652,23.652v-0.001L9.373,9.373c-0.657,0.657-1.283,1.343-1.881,2.054l12.225,12.225 H23.652z"></path> <path style="fill:#D80027;" d="M40.348,23.652L40.348,23.652L54.627,9.373c-0.657-0.657-1.343-1.283-2.054-1.881 l-12.225,12.225V23.652z"></path> </g> </g></svg>